<?xml version="1.0" standalone="no"?>
<!DOCTYPE svg PUBLIC "-//W3C//DTD SVG 20010904//EN"
 "http://www.w3.org/TR/2001/REC-SVG-20010904/DTD/svg10.dtd">
<svg version="1.0" xmlns="http://www.w3.org/2000/svg"
 width="300.000000pt" height="57.000000pt" viewBox="0 0 300.000000 57.000000"
 preserveAspectRatio="xMidYMid meet">
<metadata>
Created by potrace 1.10, written by Peter Selinger 2001-2011
</metadata>
<g transform="translate(0.000000,57.000000) scale(0.100000,-0.100000)"
fill="#444444" stroke="none">
<path d="M1830 352 c0 -196 4 -223 35 -222 5 0 2 5 -7 11 -16 9 -18 30 -18
204 l0 194 28 4 c25 4 25 4 -5 6 l-33 1 0 -198z"/>
<path d="M2062 543 c34 -4 37 -7 41 -41 l4 -37 1 43 2 42 -42 -2 -43 -1 37 -4z"/>
<path d="M2532 338 l3 -213 43 -3 42 -3 0 79 c0 44 2 95 5 113 4 29 3 30 -4 9
-5 -14 -9 -62 -10 -107 l-1 -83 -35 0 -35 0 0 206 0 205 33 -3 c31 -3 32 -5
35 -53 4 -74 8 -81 33 -59 11 10 41 21 67 25 46 6 46 6 9 8 -21 0 -51 -6 -67
-14 l-30 -16 0 49 c0 57 -12 72 -57 72 l-33 0 2 -212z"/>
<path d="M2904 536 c-3 -8 -4 -27 -2 -43 3 -26 7 -28 43 -28 40 0 40 0 40 40
0 39 -1 40 -38 43 -26 2 -39 -1 -43 -12z m76 -31 c0 -33 -2 -35 -35 -35 -33 0
-35 2 -35 35 0 33 2 35 35 35 33 0 35 -2 35 -35z"/>
<path d="M1910 492 c4 -37 9 -47 25 -49 16 -1 16 -1 3 3 -13 4 -18 16 -18 44
0 21 -4 41 -8 44 -4 2 -5 -16 -2 -42z"/>
<path d="M74 523 l55 -4 4 -55 4 -54 -1 57 -1 58 -58 1 -57 1 54 -4z"/>
<path d="M152 468 l3 -63 55 0 55 0 0 60 0 60 -58 3 -58 3 3 -63z m108 -3 l0
-55 -50 0 -50 0 0 55 0 55 50 0 50 0 0 -55z"/>
<path d="M280 465 l0 -65 60 0 61 0 -3 63 -3 62 -57 3 -58 3 0 -66z m110 0 l0
-55 -50 0 -50 0 0 55 0 55 50 0 50 0 0 -55z"/>
<path d="M633 453 c15 -2 39 -2 55 0 15 2 2 4 -28 4 -30 0 -43 -2 -27 -4z"/>
<path d="M1228 444 c-27 -14 -54 -51 -45 -61 3 -2 8 5 12 16 9 30 41 45 115
52 l65 6 -60 1 c-36 1 -71 -5 -87 -14z"/>
<path d="M1613 453 c15 -2 37 -2 50 0 12 2 0 4 -28 4 -27 0 -38 -2 -22 -4z"/>
<path d="M2273 452 c-6 -4 22 -7 62 -7 40 0 68 3 62 7 -7 4 -34 8 -62 8 -27 0
-55 -4 -62 -8z"/>
<path d="M567 439 c-18 -10 -52 -68 -44 -75 2 -3 10 8 16 24 6 15 24 35 39 45
29 18 19 24 -11 6z"/>
<path d="M752 430 c20 -11 40 -29 43 -41 4 -11 9 -18 12 -16 15 16 -53 78 -84
77 -4 -1 9 -10 29 -20z"/>
<path d="M851 338 c0 -62 3 -121 7 -130 4 -10 5 38 3 107 l-3 124 38 4 39 4
-42 1 -43 2 1 -112z"/>
<path d="M942 338 c-2 -95 1 -120 14 -132 8 -9 20 -16 26 -16 6 0 1 8 -11 18
-19 15 -21 29 -24 132 l-3 115 -2 -117z"/>
<path d="M1062 438 c-8 -8 -11 -45 -10 -112 l2 -101 5 105 6 105 32 3 32 3 4
-123 3 -123 2 128 2 127 -33 0 c-18 0 -38 -5 -45 -12z"/>
<path d="M1395 438 c11 -6 26 -18 33 -26 6 -9 12 -11 12 -4 0 12 -39 42 -55
42 -5 0 -1 -6 10 -12z"/>
<path d="M1541 436 c-43 -24 -50 -52 -51 -188 l0 -128 48 2 47 1 -42 4 -43 4
0 120 c0 66 5 129 11 140 5 11 25 29 42 39 36 22 26 27 -12 6z"/>
<path d="M1712 434 c15 -8 34 -27 42 -42 9 -15 15 -21 16 -14 0 17 -55 72 -72
72 -7 -1 -1 -7 14 -16z"/>
<path d="M1960 434 c0 -11 -5 -25 -12 -32 -9 -9 -9 -12 0 -12 13 0 28 47 18
57 -3 4 -6 -3 -6 -13z"/>
<path d="M2060 441 l35 -6 3 -152 3 -152 -36 -4 -35 -4 37 1 38 1 3 149 c3
163 -1 177 -52 175 l-31 -2 35 -6z"/>
<path d="M2905 285 l0 -160 40 0 40 0 3 143 c2 138 -5 182 -29 182 -6 0 -3 -7
5 -16 13 -13 16 -42 16 -160 l0 -144 -35 0 -35 0 -3 158 -3 157 1 -160z"/>
<path d="M2213 416 c-15 -13 -26 -26 -23 -28 3 -2 18 9 34 24 35 34 27 37 -11
4z"/>
<path d="M2442 415 c9 -11 21 -31 27 -45 7 -17 10 -20 10 -8 1 10 -11 30 -26
46 -16 15 -20 19 -11 7z"/>
<path d="M43 383 c15 -2 39 -2 55 0 15 2 2 4 -28 4 -30 0 -43 -2 -27 -4z"/>
<path d="M130 335 l0 -54 -57 -4 -58 -3 63 -2 62 -2 0 60 c0 33 -2 60 -5 60
-3 0 -5 -25 -5 -55z"/>
<path d="M280 330 l0 -60 60 0 60 0 -2 63 -2 62 -3 -57 -4 -58 -49 0 -50 0 0
49 0 50 48 4 47 3 -52 2 -53 2 0 -60z"/>
<path d="M621 371 c-43 -43 -34 -151 14 -173 53 -24 107 25 104 94 -1 14 -5 8
-10 -16 -26 -110 -124 -98 -124 14 0 96 87 125 118 40 5 -13 6 -13 6 1 1 22
-41 59 -67 59 -12 0 -31 -9 -41 -19z"/>
<path d="M1314 381 c22 -3 41 -11 43 -18 4 -12 -54 -33 -91 -33 -11 0 -17 -3
-13 -6 9 -9 83 6 103 21 28 20 2 45 -45 44 l-36 -2 39 -6z"/>
<path d="M1442 307 c-2 -98 -17 -138 -60 -161 -15 -9 -22 -15 -16 -16 19 0 61
38 73 68 7 17 10 63 8 113 l-3 84 -2 -88z"/>
<path d="M1592 378 c-7 -7 -12 -17 -12 -22 0 -6 5 -3 11 7 12 20 59 23 77 5 8
-8 12 -47 12 -108 0 -72 4 -101 16 -116 15 -18 15 -18 5 3 -6 12 -11 64 -11
117 0 73 -4 98 -16 110 -18 19 -65 21 -82 4z"/>
<path d="M1912 293 c3 -93 4 -98 26 -101 17 -3 22 -10 22 -32 0 -26 -4 -29
-37 -33 l-38 -4 43 -1 42 -2 0 40 c0 36 -2 40 -26 40 l-25 0 3 95 c2 52 -1 95
-5 95 -4 0 -6 -44 -5 -97z"/>
<path d="M2290 370 c-57 -57 -26 -182 44 -179 16 1 13 3 -10 10 -34 10 -54 43
-54 89 0 46 20 79 54 89 25 7 27 9 9 10 -13 1 -32 -8 -43 -19z"/>
<path d="M2653 373 c-10 -10 -14 -15 -8 -11 6 4 22 12 36 17 15 6 18 10 8 10
-9 1 -25 -7 -36 -16z"/>
<path d="M2828 259 l4 -129 -36 0 -36 0 0 95 c0 95 -16 155 -41 155 -6 0 -3
-7 5 -16 21 -21 26 -43 29 -149 l2 -90 40 0 40 0 3 118 c1 65 -1 124 -5 132
-4 7 -7 -45 -5 -116z"/>
<path d="M1220 370 l-45 -7 48 -1 c26 -1 47 3 47 8 0 6 -1 9 -2 8 -2 0 -23 -4
-48 -8z"/>
<path d="M2184 190 c0 -102 2 -143 3 -92 2 50 2 134 0 185 -1 50 -3 9 -3 -93z"/>
<path d="M814 185 c0 -99 2 -138 3 -87 2 51 2 132 0 180 -1 48 -3 6 -3 -93z"/>
<path d="M513 290 c0 -36 2 -50 4 -32 2 17 2 47 0 65 -2 17 -4 3 -4 -33z"/>
<path d="M1772 243 l-2 -112 -27 -4 -28 -4 28 -2 c15 0 30 5 33 12 2 7 3 60 1
118 l-3 104 -2 -112z"/>
<path d="M2393 290 c0 -30 2 -43 4 -27 2 15 2 39 0 55 -2 15 -4 2 -4 -28z"/>
<path d="M2483 290 c0 -30 2 -43 4 -27 2 15 2 39 0 55 -2 15 -4 2 -4 -28z"/>
<path d="M1195 295 c-14 -13 -25 -34 -24 -47 1 -18 3 -16 10 9 6 19 21 39 37
47 15 9 21 15 14 16 -7 0 -24 -11 -37 -25z"/>
<path d="M1358 265 c2 -14 6 -25 8 -25 2 0 4 11 4 25 0 14 -4 25 -9 25 -4 0
-6 -11 -3 -25z"/>
<path d="M1260 256 c-14 -18 -10 -59 8 -62 7 -1 8 0 2 3 -19 9 -11 53 13 63
15 6 17 9 6 9 -9 1 -22 -6 -29 -13z"/>
<path d="M75 253 l55 -4 0 -54 0 -54 -55 -4 -55 -4 57 1 58 1 0 60 0 60 -58 1
-57 1 55 -4z"/>
<path d="M150 195 l0 -66 58 3 57 3 0 60 0 60 -57 3 -58 3 0 -66z m110 0 l0
-55 -50 0 -50 0 0 55 0 55 50 0 50 0 0 -55z"/>
<path d="M335 253 l55 -4 0 -54 0 -55 -49 0 -50 0 -4 53 -3 52 -2 -58 -2 -58
58 3 57 3 0 60 0 60 -58 1 -57 1 55 -4z"/>
<path d="M1331 210 c-13 -11 -19 -20 -13 -20 10 0 42 27 42 36 0 7 -4 5 -29
-16z"/>
<path d="M2470 216 c0 -24 -50 -75 -83 -85 -27 -8 -28 -9 -8 -10 27 -1 101 67
101 93 0 9 -2 16 -5 16 -3 0 -5 -6 -5 -14z"/>
<path d="M520 217 c0 -19 32 -67 53 -78 20 -11 20 -9 -4 17 -15 16 -31 38 -37
49 -6 11 -12 16 -12 12z"/>
<path d="M1171 193 c-1 -26 52 -73 82 -72 17 1 15 3 -9 10 -34 10 -59 34 -67
64 -4 19 -5 19 -6 -2z"/>
<path d="M1112 170 c-6 -11 -33 -26 -59 -34 -27 -8 -40 -15 -30 -15 38 -2 121
48 106 64 -3 2 -10 -5 -17 -15z"/>
<path d="M898 153 c13 -13 28 -23 35 -23 7 0 3 6 -8 12 -11 6 -27 16 -35 22
-9 6 -5 1 8 -11z"/>
<path d="M2260 102 c0 -57 -3 -73 -17 -81 -10 -6 -13 -11 -7 -11 23 0 34 27
34 83 0 58 0 58 22 43 12 -9 32 -16 43 -15 15 0 12 3 -9 9 -15 5 -37 17 -47
26 -18 17 -19 15 -19 -54z"/>
<path d="M715 150 c-3 -5 -20 -14 -38 -19 -21 -6 -25 -10 -12 -10 11 -1 31 6
43 15 22 15 22 15 22 -43 0 -56 11 -83 35 -83 5 0 2 5 -7 11 -14 8 -18 24 -18
74 0 60 -9 80 -25 55z"/>
<path d="M1303 123 c9 -2 25 -2 35 0 9 3 1 5 -18 5 -19 0 -27 -2 -17 -5z"/>
</g>
</svg>
